<?xml version="1.0" encoding="UTF-8"?>
<svg width="800" height="800" version="1.1" viewBox="0 0 800.00001 800.00001" xmlns="http://www.w3.org/2000/svg">
 <defs>
  <linearGradient id="c" x1="378.39" x2="-76.698" y1="434.19" y2="837.58" gradientUnits="userSpaceOnUse">
   <stop offset="0"/>
   <stop stop-opacity=".42" offset="1"/>
  </linearGradient>
  <mask id="b" maskUnits="userSpaceOnUse">
   <circle cx="400" cy="400" r="400" color="#000000" color-rendering="auto" fill="#fff" image-rendering="auto" shape-rendering="auto" solid-color="#000000" style="isolation:auto;mix-blend-mode:normal"/>
  </mask>
  <mask id="a" maskUnits="userSpaceOnUse">
   <circle cx="400" cy="400" r="400" color="#000000" color-rendering="auto" fill="#fff" image-rendering="auto" shape-rendering="auto" solid-color="#000000" style="isolation:auto;mix-blend-mode:normal"/>
  </mask>
 </defs>
 <rect height="800" width="800" color="#000000" color-rendering="auto" fill="#ccc" image-rendering="auto" shape-rendering="auto" solid-color="#000000" style="isolation:auto;mix-blend-mode:normal"/>
 <path d="m361.48 213.51c-38.807-0.29028-77.614 19.377-116.42 91.665-13.189 16.969-18.648 12.83-37.963 7.4778l-25.308 25.308 76.788 76.788 23.583-23.582c13.419-53.199 32.287-32.907 57.231-6.6147l55.794-55.794c-69.919-56.273 36.336-84.861 69.023-90.305-34.242-8.8933-68.484-24.688-102.73-24.944zm204.96 16.832c-9.5058-0.17375-18.892 2.8233-26.746 9.9796l-99.847 98.224 18.961 18.962c12.459-11.91 87.397-87.492 87.397-87.492l9.1517 9.1528-87.449 87.449 14.158 14.158c9.4496-8.8237 88.744-88.807 88.744-88.807l9.1517 9.1517-88.775 88.776 18.209 18.198 99.041-99.03c27.428-36.98-8.0472-78.101-41.996-78.722zm-159.13 113.09-54.907 54.908 177.33 181.4c39.902 34.443 94.509-22.147 56.94-56.94l-179.36-179.37zm-38.232 112.66-85.005 79.717-17.488 35.385 12.201 9.7623 40.469-27.047 73.819-73.82-23.997-23.997z" fill="#fff" fill-rule="evenodd" mask="url(#b)"/>
</svg>
