<?xml version='1.0' encoding='utf-8'?>
<svg xmlns="http://www.w3.org/2000/svg" id="Ebene_1" data-name="Ebene 1" viewBox="0 0 800 800"><defs><clipPath id="clip-path"><circle cx="400" cy="400" r="400" style="fill:none"/></clipPath><linearGradient id="Unbenannter_Verlauf_5" x1="449.261" y1="367.261" x2="169.165" y2="647.357" gradientUnits="userSpaceOnUse"><stop offset="0"/><stop offset="1" stop-opacity="0"/></linearGradient></defs><title>shirt</title><circle cx="400" cy="400" r="400" style="fill:#1c8adb"/><g style="clip-path:url(#clip-path)"><path d="M262.7822,792.4482a6.9949,6.9949,0,0,1-1.2061-.1045c-61.6914-10.7852-113.8887-37.28-155.14-78.748C69.3047,676.27,40.2588,626.9775,17.6392,562.9033a7.0009,7.0009,0,0,1,1.6509-7.28L311.0044,263.9087a6.8078,6.8078,0,0,1,4.9741-2.05l6.6025.0229,24.4966-24.4976a7,7,0,0,1,4.9492-2.05h.0405l96.0293.5527a7.004,7.004,0,0,1,4.91,2.05l23.9463,23.9468,7.0684-.0249h.0244a7.0015,7.0015,0,0,1,4.95,2.05l93.0557,93.0562a7,7,0,0,1,0,9.8994l-84.4883,84.4883V557.667a7.0031,7.0031,0,0,1-2.05,4.95L267.7314,790.3984A7.0023,7.0023,0,0,1,262.7822,792.4482Z" style="opacity:0.42;fill:url(#Unbenannter_Verlauf_5)"/><polygon points="484.046 268.859 474.064 268.893 448.057 242.886 352.027 242.333 325.936 268.893 315.954 268.859 222.898 361.915 272.076 411.093 309.437 373.732 309.437 557.667 490.563 557.667 490.563 373.732 527.924 411.093 577.102 361.915 484.046 268.859" style="fill:none;stroke:#fff;stroke-linejoin:round;stroke-width:14px"/><polygon points="474.064 268.893 448.057 242.886 400 290.943 351.943 242.886 325.936 268.893 375.339 318.297 400 293.636 424.661 318.297 474.064 268.893" style="fill:none;stroke:#fff;stroke-linejoin:round;stroke-width:14px"/></g></svg>