<?xml version="1.0" encoding="UTF-8" standalone="no"?>
<svg
   xmlns:dc="http://purl.org/dc/elements/1.1/"
   xmlns:cc="http://creativecommons.org/ns#"
   xmlns:rdf="http://www.w3.org/1999/02/22-rdf-syntax-ns#"
   xmlns:svg="http://www.w3.org/2000/svg"
   xmlns="http://www.w3.org/2000/svg"
   viewBox="0 0 1066.6667 800"
   height="800"
   width="1066.6667"
   xml:space="preserve"
   id="svg2"
   version="1.1"><metadata
     id="metadata8"><rdf:RDF><cc:Work
         rdf:about=""><dc:format>image/svg+xml</dc:format><dc:type
           rdf:resource="http://purl.org/dc/dcmitype/StillImage" /></cc:Work></rdf:RDF></metadata><defs
     id="defs6"><clipPath
       id="clipPath18"
       clipPathUnits="userSpaceOnUse"><path
         id="path16"
         d="M 0,600 H 800 V 0 H 0 Z" /></clipPath></defs><g
     transform="matrix(1.3333333,0,0,-1.3333333,0,800)"
     id="g10"><g
       id="g12"><g
         clip-path="url(#clipPath18)"
         id="g14"><g
           transform="translate(275.9973,325.8245)"
           id="g20"><path
             id="path22"
             style="fill:#8cc63f;fill-opacity:1;fill-rule:nonzero;stroke:none"
             d="m 0,0 12.588,-47.653 8.423,40.42 c 0.458,2.167 1.557,3.921 3.296,5.264 1.678,1.282 3.586,1.923 5.722,1.923 2.106,0 3.998,-0.641 5.677,-1.923 1.769,-1.343 2.867,-3.097 3.295,-5.264 L 47.424,-47.607 59.966,0 H 71.685 L 56.076,-59.508 c -0.52,-2.015 -1.633,-3.648 -3.342,-4.899 -1.648,-1.22 -3.495,-1.831 -5.539,-1.831 -2.075,0 -3.937,0.611 -5.585,1.831 -1.8,1.312 -2.929,3.051 -3.387,5.219 l -8.194,39.413 -8.239,-39.413 c -0.458,-2.168 -1.588,-3.907 -3.388,-5.219 -1.648,-1.22 -3.509,-1.831 -5.585,-1.831 -2.045,0 -3.876,0.611 -5.493,1.831 -1.709,1.251 -2.838,2.884 -3.387,4.899 L -11.764,0 Z" /></g><g
           transform="translate(382.1062,290.5769)"
           id="g24"><path
             id="path26"
             style="fill:#8cc63f;fill-opacity:1;fill-rule:nonzero;stroke:none"
             d="m 0,0 c -2.137,3.173 -5.188,4.761 -9.155,4.761 -3.968,0 -7.203,-1.496 -9.705,-4.487 -2.35,-3.112 -3.143,-6.682 -2.38,-10.711 z m -16.25,-18.081 c 2.38,-1.588 4.973,-2.381 7.781,-2.381 2.167,0 4.41,0.458 6.729,1.373 2.564,1.037 4.395,2.335 5.493,3.892 l 8.56,-5.997 c -2.075,-2.992 -5.142,-5.387 -9.2,-7.187 -3.845,-1.739 -7.707,-2.609 -11.582,-2.609 -4.059,0 -7.935,1.007 -11.627,3.021 -3.784,2.074 -6.683,4.822 -8.697,8.24 -1.069,1.8 -1.862,3.662 -2.38,5.584 -0.52,1.953 -0.779,3.937 -0.779,5.951 0,6.287 2.227,11.657 6.683,16.113 4.456,4.456 9.827,6.684 16.114,6.684 4.607,0 8.834,-1.298 12.679,-3.892 4.73,-3.174 7.98,-7.935 9.751,-14.281 z" /></g><g
           transform="translate(434.1985,259.5867)"
           id="g28"><path
             id="path30"
             style="fill:#0095f3;fill-opacity:1;fill-rule:nonzero;stroke:none"
             d="m 0,0 c -9.552,0 -17.349,3.188 -23.392,9.567 -5.889,6.255 -8.834,14.099 -8.834,23.529 0,9.46 2.945,17.318 8.834,23.574 6.073,6.378 13.871,9.568 23.392,9.568 11.962,0 20.996,-5.936 27.099,-17.807 L 17.029,43.258 C 13.03,50.979 7.354,54.839 0,54.839 c -6.317,0 -11.398,-2.09 -15.243,-6.271 -3.724,-4.028 -5.585,-9.186 -5.585,-15.472 0,-6.256 1.861,-11.399 5.585,-15.426 3.845,-4.182 8.926,-6.272 15.243,-6.272 7.354,0 13.03,3.875 17.029,11.627 l 10.07,-5.172 C 20.996,5.951 11.962,0 0,0" /></g><g
           transform="translate(492.3343,294.3763)"
           id="g32"><path
             id="path34"
             style="fill:#0095f3;fill-opacity:1;fill-rule:nonzero;stroke:none"
             d="m 0,0 c -3.144,0 -5.829,-1.175 -8.057,-3.525 -2.228,-2.319 -3.341,-5.142 -3.341,-8.469 0,-3.295 1.113,-6.118 3.341,-8.467 2.228,-2.321 4.913,-3.48 8.057,-3.48 3.143,0 5.829,1.159 8.057,3.48 2.227,2.349 3.341,5.172 3.341,8.467 0,3.327 -1.114,6.15 -3.341,8.469 C 5.829,-1.175 3.143,0 0,0 m 16.113,4.12 c 4.455,-4.456 6.683,-9.888 6.683,-16.296 V -34.79 h -10.62 v 5.31 C 9.368,-33.02 5.31,-34.79 0,-34.79 c -6.287,0 -11.658,2.228 -16.113,6.684 -4.456,4.455 -6.683,9.826 -6.683,16.112 0,6.287 2.227,11.658 6.683,16.114 4.455,4.455 9.826,6.683 16.113,6.683 6.286,0 11.657,-2.228 16.113,-6.683" /></g><g
           transform="translate(551.2473,293.781)"
           id="g36"><path
             id="path38"
             style="fill:#0095f3;fill-opacity:1;fill-rule:nonzero;stroke:none"
             d="m 0,0 c -3.662,0 -6.791,-1.297 -9.384,-3.891 -2.625,-2.625 -3.936,-5.767 -3.936,-9.429 v -20.874 h -11.353 v 20.874 c 0,6.835 2.41,12.664 7.233,17.486 4.821,4.821 10.635,7.232 17.44,7.232 7.721,-0.58 13.58,-3.769 17.578,-9.567 L 8.881,-3.845 C 6.378,-1.282 3.417,0 0,0" /></g><g
           transform="translate(598.6252,293.781)"
           id="g40"><path
             id="path42"
             style="fill:#0095f3;fill-opacity:1;fill-rule:nonzero;stroke:none"
             d="m 0,0 c -3.662,0 -6.791,-1.297 -9.384,-3.891 -2.625,-2.625 -3.936,-5.767 -3.936,-9.429 v -20.874 h -11.353 v 20.874 c 0,6.835 2.41,12.664 7.233,17.486 4.821,4.821 10.635,7.232 17.44,7.232 7.721,-0.58 13.58,-3.769 17.578,-9.567 L 8.881,-3.845 C 6.378,-1.282 3.417,0 0,0" /></g><g
           transform="translate(645.866,250.0193)"
           id="g44"><path
             id="path46"
             style="fill:#0095f3;fill-opacity:1;fill-rule:nonzero;stroke:none"
             d="m 0,0 c 3.692,0 6.896,1.358 9.613,4.074 2.716,2.717 4.074,5.905 4.074,9.568 v 4.714 C 10.757,13.778 6.317,11.49 0.366,11.49 c -6.805,0 -12.619,2.41 -17.44,7.233 -4.822,4.821 -7.233,10.634 -7.233,17.44 v 19.043 h 11.398 V 36.163 c 0,-3.662 1.297,-6.79 3.891,-9.384 2.594,-2.594 5.722,-3.891 9.384,-3.891 3.693,0 6.836,1.297 9.43,3.891 2.594,2.594 3.891,5.722 3.891,9.384 V 55.206 H 25.085 V 13.642 C 25.085,6.866 22.613,1.053 17.669,-3.799 12.726,-8.621 6.836,-11.031 0,-11.031 c -10.956,0 -19.134,4.562 -24.536,13.686 l 9.384,5.585 C -11.887,2.747 -6.836,0 0,0" /></g><g
           transform="translate(180.1089,299.0339)"
           id="g48"><path
             id="path50"
             style="fill:#0095f3;fill-opacity:1;fill-rule:nonzero;stroke:none"
             d="m 0,0 c -2.5,-6.739 -9.815,-10.074 -16.582,-7.577 -6.905,2.55 -10.059,9.572 -7.414,16.521 2.541,6.671 10.026,9.969 16.654,7.312 C -1.046,13.737 2.334,6.26 0,0" /></g><g
           transform="translate(231.8151,316.7743)"
           id="g52"><path
             id="path54"
             style="fill:#8cc63f;fill-opacity:1;fill-rule:nonzero;stroke:none"
             d="m 0,0 c -2.498,-6.344 -9.934,-9.58 -16.417,-7.136 -6.614,2.48 -9.92,10.259 -7.168,16.825 2.687,6.391 9.92,9.295 16.472,6.613 C -0.534,13.624 2.563,6.517 0,0" /></g><g
           transform="translate(251.1431,307.3606)"
           id="g56"><path
             id="path58"
             style="fill:#0095f3;fill-opacity:1;fill-rule:nonzero;stroke:none"
             d="m 0,0 c -0.117,0.004 -0.23,0.02 -0.336,0.02 -1.965,0.539 -3.91,0.99 -5.853,1.376 -9.296,32.645 -37.903,43.952 -61.404,38.323 -23.941,-5.743 -40.916,-28.71 -38.267,-52.693 16.914,-10.318 34.96,-17.124 57.059,-12.911 -14.392,-8.503 -28.658,-12.509 -43.198,-12.316 -7.282,0.101 -14.631,1.258 -22.089,3.46 -1.337,0.382 -2.695,0.812 -4.044,1.265 -5.587,13.854 -6.217,29.76 -0.557,44.854 11.992,31.983 47.653,48.195 79.636,36.203 14.492,-5.433 25.734,-15.726 32.604,-28.344 0,0 0.007,-0.015 0.015,-0.031 C -3.55,13.473 -1.399,7.052 0,0" /></g><g
           transform="translate(210.1055,238.3989)"
           id="g60"><path
             id="path62"
             style="fill:#8cc63f;fill-opacity:1;fill-rule:nonzero;stroke:none"
             d="m 0,0 c -0.091,-0.032 -0.167,-0.056 -0.258,-0.088 -12.953,-4.313 -27.417,-4.373 -41.19,0.791 -13.936,5.225 -24.879,14.943 -31.796,26.905 7.492,-1.092 14.75,-2.135 22.083,-3.194 C -18.948,-5.5 22.551,13.702 31.497,41.437 15.074,51.056 -2.186,56.682 -21.651,52.657 -1.9,65.269 19.154,68.354 41.556,62.135 44.11,35.294 26.394,9.433 0,0" /></g></g></g></g></svg>