<?xml version="1.0" encoding="UTF-8"?>
<svg width="800" height="800" xmlns="http://www.w3.org/2000/svg" id="Ebene_1" data-name="Ebene 1" viewBox="0 0 800 800">
    <defs>
        <clipPath id="clip-path">
            <circle cx="400" cy="400" r="400" style="fill:none"/>
        </clipPath>
        <linearGradient id="Unbenannter_Verlauf_6" x1="414.1676" y1="403.6681" x2="158.7505" y2="659.0852" gradientUnits="userSpaceOnUse">
            <stop offset="0"/>
            <stop offset="1" stop-opacity="0"/>
        </linearGradient>
    </defs>
    <title>laptop</title>
    <rect height="800" width="800" style="fill:#ccc"/>
    <g style="clip-path:url(#clip-path)">
        <path d="M248.4269,475.9473V315.0527H551.5731V475.9473H248.4269m-11,11H562.5731V310.3129a6.26,6.26,0,0,0-6.26-6.26H243.6871a6.26,6.26,0,0,0-6.26,6.26V486.9473Z" style="fill:#fff"/>
        <path d="M425.25,492.3947V496h-50.5v-3.6053H216v11.5307a6.2588,6.2588,0,0,0,6.2588,6.2588H577.7412A6.2588,6.2588,0,0,0,584,503.9254V492.3947Z" style="fill:#fff"/>
    </g>
</svg>
